<svg xmlns:dc="http://purl.org/dc/elements/1.1/" xmlns:cc="http://creativecommons.org/ns#" xmlns:rdf="http://www.w3.org/1999/02/22-rdf-syntax-ns#" xmlns:svg="http://www.w3.org/2000/svg" xmlns="http://www.w3.org/2000/svg" xmlns:sodipodi="http://sodipodi.sourceforge.net/DTD/sodipodi-0.dtd" xmlns:inkscape="http://www.inkscape.org/namespaces/inkscape" viewBox="0 0 16.933333 21.1666675" version="1.1" enable-background="new" x="0px" y="0px"><path style="color:#000000;font-style:normal;font-variant:normal;font-weight:normal;font-stretch:normal;font-size:medium;line-height:normal;font-family:sans-serif;font-variant-ligatures:normal;font-variant-position:normal;font-variant-caps:normal;font-variant-numeric:normal;font-variant-alternates:normal;font-feature-settings:normal;text-indent:0;text-align:start;text-decoration:none;text-decoration-line:none;text-decoration-style:solid;text-decoration-color:#000000;letter-spacing:normal;word-spacing:normal;text-transform:none;writing-mode:lr-tb;direction:ltr;text-orientation:mixed;dominant-baseline:auto;baseline-shift:baseline;text-anchor:start;white-space:normal;shape-padding:0;clip-rule:nonzero;display:inline;overflow:visible;visibility:visible;opacity:1;isolation:auto;mix-blend-mode:normal;color-interpolation:sRGB;color-interpolation-filters:linearRGB;solid-color:#000000;solid-opacity:1;vector-effect:none;fill:#000000;fill-opacity:1;fill-rule:nonzero;stroke:none;stroke-width:0.52916676;stroke-linecap:round;stroke-linejoin:round;stroke-miterlimit:4;stroke-dasharray:none;stroke-dashoffset:0;stroke-opacity:1;paint-order:normal;color-rendering:auto;image-rendering:auto;shape-rendering:auto;text-rendering:auto;enable-background:accumulate" d="M 8.4607419,3.1540727 C 6.945735,3.154337 5.5272297,3.8291771 4.5214453,4.9549965 4.3763928,4.9359015 4.2301205,4.9188454 4.0837477,4.9177894 a 0.26460982,0.26460982 0 0 0 -0.00212,0 c -1.9566724,8.02e-5 -3.54853543,1.5919434 -3.54861743,3.5486205 8.2e-5,1.9566781 1.59194503,3.5490581 3.54862073,3.5491381 a 0.26460982,0.26460982 0 0 0 0.00212,0 c 0.1472301,-4.77e-4 0.2932906,-0.01848 0.439248,-0.03721 1.0045859,1.12568 2.4237792,1.799058 3.9377462,1.800923 1.5156259,-3.44e-4 2.9356018,-0.676322 3.9413598,-1.802991 0.14835,0.01996 0.297762,0.03819 0.447519,0.03927 a 0.26460982,0.26460982 0 0 0 0.0016,0 c 1.956636,-7.9e-5 3.549017,-1.592457 3.549099,-3.5491303 C 16.400194,6.5097406 14.80786,4.9178752 12.851187,4.9177892 a 0.26460982,0.26460982 0 0 0 -0.0021,0 c -0.151239,3.44e-4 -0.301252,0.017592 -0.451133,0.037207 C 11.393349,3.8299087 9.9742882,3.1558872 8.4606942,3.1540727 Z m 0,0.5291666 c 1.414092,0.00169 2.7545371,0.628812 3.6623071,1.7130737 a 0.26460982,0.26460982 0 0 0 0.24598,0.089917 c 0.159428,-0.026183 0.32058,-0.038893 0.482143,-0.039274 1.670703,7.36e-5 3.019382,1.3487479 3.019454,3.0194538 -7.2e-5,1.6700542 -1.347587,3.0183272 -3.017388,3.0194542 -0.159697,-0.0012 -0.318947,-0.01446 -0.476456,-0.04082 a 0.26460982,0.26460982 0 0 0 -0.248047,0.08992 C 11.219928,12.62135 9.8771305,13.249266 8.4607419,13.249588 7.0471472,13.247888 5.7082338,12.622216 4.8004987,11.538581 a 0.26460982,0.26460982 0 0 0 -0.2459805,-0.09147 c -0.1566307,0.02541 -0.3141583,0.03824 -0.4728395,0.03876 -1.6707088,-6.8e-5 -3.0193827,-1.348744 -3.0194541,-3.0194541 7.14e-5,-1.6700574 1.3475811,-3.018333 3.0173877,-3.0194538 0.1568026,0.00114 0.3144943,0.01384 0.4692226,0.039274 A 0.26460982,0.26460982 0 0 0 4.7948154,5.396313 C 5.703683,4.3107384 7.0449326,3.6834865 8.4607419,3.6832393 Z"/><text x="0" y="31.933334" fill="#000000" font-size="5px" font-weight="bold" font-family="'Helvetica Neue', Helvetica, Arial-Unicode, Arial, Sans-serif">Created by Larea</text><text x="0" y="36.933334" fill="#000000" font-size="5px" font-weight="bold" font-family="'Helvetica Neue', Helvetica, Arial-Unicode, Arial, Sans-serif">from the Noun Project</text></svg>